# xmcd CD database file
#
# Track frame offsets:
#	187
#	28652
#	58475
#	82837
#	107437
#	131327
#	156515
#	187005
#	210015
#	234250
#	260162
#	279572
#	298512
#	321405
#
# Disc length: 4590 seconds
#
# Revision: 0
# Processed by: cddbd v1.5PL3 Copyright (c) Steve Scherf et al.
# Submitted via: CDex 1.50beta10
#
DISCID=c811ec0e
DTITLE=Various Artist(Electronic) - DANCE 2 NOISE 003
DYEAR=1992
DGENRE=Electronic
TTITLE0=MATRIX BUG
TTITLE1=For The 21st Century of Hippies [To D.DANNY D…]
TTITLE2=恋のダイヤル0990
TTITLE3=My Speedy Salah
TTITLE4=ICE
TTITLE5=somewhere wonderful [re-mix]
TTITLE6=She Nah Sha Nha
TTITLE7=SCREAM!
TTITLE8=ANDOROID IMAGES 202
TTITLE9=無邪気な絆 [featuring Maki's noises]
TTITLE10=Will Never End
TTITLE11=CUT B∀SS
TTITLE12=I Need You…
TTITLE13=ROOM
EXTD=YEAR: 1992
EXTT0=
EXTT1=
EXTT2=
EXTT3=
EXTT4=
EXTT5=
EXTT6=
EXTT7=
EXTT8=
EXTT9=
EXTT10=
EXTT11=
EXTT12=
EXTT13=
PLAYORDER=
